<svg id="Layer_1" enable-background="new 0 0 479.692 479.692" height="512" viewBox="0 0 479.692 479.692" width="512" xmlns="http://www.w3.org/2000/svg"><g><path d="m113.846 202.692c-12.265 0-23.031 6.529-29.012 16.292-1.168-.152-2.349-.238-3.545-.238-8.068 0-14.069-.214-23.442 2.089v-27.809c0-233.105 356.4-236.567 363.88-7.424.144 4.416 3.869 7.866 8.256 7.735 4.416-.145 7.879-3.841 7.735-8.257-8.149-249.681-395.872-246.453-395.872 7.946v38.882c0 5.818 6.004 9.664 11.277 7.293 11.07-4.635 18.853-4.455 26.783-4.455-.112 1.972.001 145.596.018 145.893h-4.796c-31.034 0-56.281-25.248-56.281-56.281v-33.33c0-8.966 2.043-17.533 6.073-25.463 2.002-3.938.432-8.754-3.507-10.756-3.94-2.001-8.754-.432-10.756 3.507-5.182 10.197-7.81 21.203-7.81 32.712v33.33c0 39.856 32.425 72.281 72.281 72.281 6.681 0 11.1.406 17.294-2.395 1.769-.781 3.252-2.222 4.076-4.103 1.897-4.323-.652-5.772-.652-11.449v-142c0-9.925 8.075-18 18-18s18 8.075 18 18v142c0 8.951-6.672 16.617-15.52 17.831-4.377.601-7.439 4.636-6.838 9.013.605 4.413 4.674 7.437 9.013 6.839 16.729-2.295 29.345-16.775 29.345-33.683v-142c0-18.748-15.252-34-34-34z"/><path d="m404.565 218.746h-2.108v-22.169c0-202.702-308.752-208.659-324.599-15.424-.361 4.404 2.916 8.267 7.319 8.628 4.411.354 8.266-2.916 8.627-7.319 7.435-90.658 84.596-128.946 153.157-126.124 69.435 2.842 139.496 47.308 139.496 140.239 0 26.884.042 24.959-.098 25.044-2.833 1.721-4.353 5.079-3.683 8.407 1.665 8.157 1.17-17.425 1.17 148.664 0 9.925-8.075 18-18 18s-18-8.075-18-18v-142c0-8.86 6.595-16.516 15.34-17.806 4.371-.645 7.392-4.711 6.747-9.082-.645-4.37-4.713-7.385-9.082-6.746-16.536 2.438-29.005 16.898-29.005 33.634v142c0 18.748 15.252 34 34 34 12.265 0 23.031-6.529 29.012-16.292 3.208.418 10.972.235 12.882.152-8.656 23.508-25.348 42.927-46.961 54.864-.917-13.787-12.419-24.724-26.434-24.724h-21c-14.612 0-26.5 11.888-26.5 26.5s11.888 26.5 26.5 26.5h21c6.759 0 12.932-2.547 17.618-6.728 36.7-13.438 64.442-44.08 74.378-82.314.241-.926.299-1.854.215-2.753.54-5.417-4.375-9.796-9.695-8.603-6.674 1.486-11.035 1.345-17.076 1.345.112-1.972-.001-145.596-.018-145.893h4.797c31.034 0 56.281 25.248 56.281 56.281v33.33c0 9.509-2.413 18.903-6.978 27.168-2.136 3.868-.732 8.735 3.135 10.871 3.876 2.14 8.739.725 10.871-3.135 5.869-10.627 8.972-22.696 8.972-34.904v-33.33c.001-39.856-32.424-72.281-72.28-72.281zm-91.219 244.946c-5.79 0-10.5-4.71-10.5-10.5s4.71-10.5 10.5-10.5h21c5.79 0 10.5 4.71 10.5 10.5s-4.71 10.5-10.5 10.5z"/></g></svg>